<svg class="svg-icon" style="width: 1.0966796875em;height: 1em;vertical-align: middle;fill: currentColor;overflow: hidden;" viewBox="0 0 1123 1024" version="1.1" xmlns="http://www.w3.org/2000/svg"><path d="M535.485217 878.302609c37.843478 0 68.34087 30.497391 68.34087 68.340869 0 37.843478-30.497391 68.34087-68.34087 68.34087-37.843478 0-68.34087-30.497391-68.340869-68.34087-1.224348-37.843478 29.94087-68.34087 68.340869-68.340869z m308.758261 0c37.843478 0 68.34087 30.497391 68.34087 68.340869 0 37.843478-30.497391 68.34087-68.34087 68.34087-37.843478 0-68.34087-30.497391-68.340869-68.34087 0-37.843478 30.497391-68.34087 68.340869-68.340869z m86.594783-281.822609c107.965217-4.897391 192.77913-93.384348 192.77913-201.349565s-86.038261-196.452174-192.77913-201.349565H281.154783l-33.502609-95.165218C240.306087 47.972174 194.003478 8.904348 143.916522 8.904348H40.848696c-23.151304 0-40.848696 18.253913-40.848696 40.848695 0 22.594783 18.253913 40.848696 40.848696 40.848696h103.735652c9.794783 0 20.702609 9.794783 21.926956 18.921739l161.057392 622.302609c7.346087 50.643478 53.648696 89.711304 103.735652 89.711304h543.610435c23.151304 0 40.848696-18.253913 40.848695-40.848695 0-23.151304-18.253913-40.848696-40.848695-40.848696H431.193043c-9.794783 0-20.702609-9.794783-21.926956-18.921739l-29.273044-123.881739 550.845218-0.556522z m0 0"  /></svg>